<svg xmlns="http://www.w3.org/2000/svg" width="536" height="136" version="1.1" viewBox="0 0 536 136"><defs><style type="text/css">path.frame{stroke:silver;stroke-width:2;stroke-linecap:round;fill:none}path.a,path.c,path.l,path.m,path.u{stroke:#000;stroke-width:6;stroke-linecap:round;fill:none}text{font:16px sans-serif;stroke:#606060;fill:#606060}</style></defs><g><path d="M 1 35 h 30 a 4,4 0 0,0 4,-4 v -30" class="frame" transform="scale(1.0)"/><path d="M 1 51 h 30 a 4,4 0 0,1 4, 4 v 26 a 4,4 0 0,1 -4, 4 h -30" class="frame" transform="scale(1.0)"/><path d="M 1 101 h 30 a 4,4 0 0,1 4, 4 v 30" class="frame" transform="scale(1.0)"/><path d="M 51 1 v 30 a 4,4 0 0,0 4, 4 h 26 a 4,4 0 0,0 4,-4 v -30" class="frame" transform="scale(1.0)"/><path d="M 101 1 v 30 a 4,4 0 0,0 4, 4 h 26 a 4,4 0 0,0 4,-4 v -30" class="frame" transform="scale(1.0)"/><path d="M 151 1 v 30 a 4,4 0 0,0 4, 4 h 26 a 4,4 0 0,0 4,-4 v -30" class="frame" transform="scale(1.0)"/><path d="M 201 1 v 30 a 4,4 0 0,0 4, 4 h 26 a 4,4 0 0,0 4,-4 v -30" class="frame" transform="scale(1.0)"/><path d="M 251 1 v 30 a 4,4 0 0,0 4, 4 h 26 a 4,4 0 0,0 4,-4 v -30" class="frame" transform="scale(1.0)"/><path d="M 301 1 v 30 a 4,4 0 0,0 4, 4 h 26 a 4,4 0 0,0 4,-4 v -30" class="frame" transform="scale(1.0)"/><path d="M 351 1 v 30 a 4,4 0 0,0 4, 4 h 26 a 4,4 0 0,0 4,-4 v -30" class="frame" transform="scale(1.0)"/><path d="M 401 1 v 30 a 4,4 0 0,0 4, 4 h 26 a 4,4 0 0,0 4,-4 v -30" class="frame" transform="scale(1.0)"/><path d="M 451 1 v 30 a 4,4 0 0,0 4, 4 h 26 a 4,4 0 0,0 4,-4 v -30" class="frame" transform="scale(1.0)"/><path d="M 51 135 v -30 a 4,4 0 0,1 4,-4 h 26 a 4,4 0 0,1 4, 4 v 30" class="frame" transform="scale(1.0)"/><path d="M 101 135 v -30 a 4,4 0 0,1 4,-4 h 26 a 4,4 0 0,1 4, 4 v 30" class="frame" transform="scale(1.0)"/><path d="M 151 135 v -30 a 4,4 0 0,1 4,-4 h 26 a 4,4 0 0,1 4, 4 v 30" class="frame" transform="scale(1.0)"/><path d="M 201 135 v -30 a 4,4 0 0,1 4,-4 h 26 a 4,4 0 0,1 4, 4 v 30" class="frame" transform="scale(1.0)"/><path d="M 251 135 v -30 a 4,4 0 0,1 4,-4 h 26 a 4,4 0 0,1 4, 4 v 30" class="frame" transform="scale(1.0)"/><path d="M 301 135 v -30 a 4,4 0 0,1 4,-4 h 26 a 4,4 0 0,1 4, 4 v 30" class="frame" transform="scale(1.0)"/><path d="M 351 135 v -30 a 4,4 0 0,1 4,-4 h 26 a 4,4 0 0,1 4, 4 v 30" class="frame" transform="scale(1.0)"/><path d="M 401 135 v -30 a 4,4 0 0,1 4,-4 h 26 a 4,4 0 0,1 4, 4 v 30" class="frame" transform="scale(1.0)"/><path d="M 451 135 v -30 a 4,4 0 0,1 4,-4 h 26 a 4,4 0 0,1 4, 4 v 30" class="frame" transform="scale(1.0)"/><path d="M 535 35 h -30 a 4,4 0 0,1 -4,-4 v -30" class="frame" transform="scale(1.0)"/><path d="M 535 51 h -30 a 4,4 0 0,0 -4, 4 v 26 a 4,4 0 0,0 4, 4 h 30" class="frame" transform="scale(1.0)"/><path d="M 535 101 h -30 a 4,4 0 0,0 -4, 4 v 30" class="frame" transform="scale(1.0)"/><path d="M 51 59 a 8,8 0 0,1 8,-8 h 18 a 8,8 0 0,1 8,8 v 18 a 8,8 0 0,1 -8,8 h -18 a 8,8 0 0,1 -8,-8 v -1 a 8,8 0 0,1 8,-8 h 26" class="a" transform="scale(1.0)"/><path d="M 135 51 h -26 a 8,8 0 0,0 -8,8 v 18 a 8,8 0 0,0 8,8 h 26" class="c" transform="scale(1.0)"/><path d="M 185 51 h -26 a 8,8 0 0,0 -8,8 v 18 a 8,8 0 0,0 8,8 h 26" class="c" transform="scale(1.0)"/><path d="M 201 51 v 26 a 8,8 0 0,0 8,8 h 18 a 8,8 0 0,0 8,-8 v -26" class="u" transform="scale(1.0)"/><path d="M 251 85 v -26 a 8,8 0 0,1 8,-8 h 26 a 8,8 0 0,1 8,8 v 26" class="m" transform="scale(1.0)"/><path d="M 293 85 v -26 a 8,8 0 0,1 8,-8 h 26 a 8,8 0 0,1 8,8 v 26" class="m" transform="scale(1.0)"/><path d="M 351 51 v 26 a 8,8 0 0,0 8,8 h 18 a 8,8 0 0,0 8,-8 v -26" class="u" transform="scale(1.0)"/><path d="M 401 51 v 26 a 8,8 0 0,0 8,8 h 26" class="l" transform="scale(1.0)"/><path d="M 451 59 a 8,8 0 0,1 8,-8 h 18 a 8,8 0 0,1 8,8 v 18 a 8,8 0 0,1 -8,8 h -18 a 8,8 0 0,1 -8,-8 Z" class="a" transform="scale(1.0)"/><text x="509" y="22" transform="scale(1.0)">TM</text></g></svg>