<svg xmlns="http://www.w3.org/2000/svg" width="550" height="150" version="1.1" viewBox="0 0 550 150"><defs><style type="text/css">path.frame{stroke:silver;stroke-width:2;stroke-linecap:round;fill:none}path.a,path.c,path.l,path.m,path.u{stroke:#000;stroke-width:6;stroke-linecap:round;fill:none}text{font:16px sans-serif;stroke:#606060;fill:#606060}</style></defs><g><path d="M 8 42 h 30 a 4,4 0 0,0 4,-4 v -30" class="frame" transform="scale(1.0)"/><path d="M 8 58 h 30 a 4,4 0 0,1 4, 4 v 26 a 4,4 0 0,1 -4, 4 h -30" class="frame" transform="scale(1.0)"/><path d="M 8 108 h 30 a 4,4 0 0,1 4, 4 v 30" class="frame" transform="scale(1.0)"/><path d="M 58 8 v 30 a 4,4 0 0,0 4, 4 h 26 a 4,4 0 0,0 4,-4 v -30" class="frame" transform="scale(1.0)"/><path d="M 108 8 v 30 a 4,4 0 0,0 4, 4 h 26 a 4,4 0 0,0 4,-4 v -30" class="frame" transform="scale(1.0)"/><path d="M 158 8 v 30 a 4,4 0 0,0 4, 4 h 26 a 4,4 0 0,0 4,-4 v -30" class="frame" transform="scale(1.0)"/><path d="M 208 8 v 30 a 4,4 0 0,0 4, 4 h 26 a 4,4 0 0,0 4,-4 v -30" class="frame" transform="scale(1.0)"/><path d="M 258 8 v 30 a 4,4 0 0,0 4, 4 h 26 a 4,4 0 0,0 4,-4 v -30" class="frame" transform="scale(1.0)"/><path d="M 308 8 v 30 a 4,4 0 0,0 4, 4 h 26 a 4,4 0 0,0 4,-4 v -30" class="frame" transform="scale(1.0)"/><path d="M 358 8 v 30 a 4,4 0 0,0 4, 4 h 26 a 4,4 0 0,0 4,-4 v -30" class="frame" transform="scale(1.0)"/><path d="M 408 8 v 30 a 4,4 0 0,0 4, 4 h 26 a 4,4 0 0,0 4,-4 v -30" class="frame" transform="scale(1.0)"/><path d="M 458 8 v 30 a 4,4 0 0,0 4, 4 h 26 a 4,4 0 0,0 4,-4 v -30" class="frame" transform="scale(1.0)"/><path d="M 58 142 v -30 a 4,4 0 0,1 4,-4 h 26 a 4,4 0 0,1 4, 4 v 30" class="frame" transform="scale(1.0)"/><path d="M 108 142 v -30 a 4,4 0 0,1 4,-4 h 26 a 4,4 0 0,1 4, 4 v 30" class="frame" transform="scale(1.0)"/><path d="M 158 142 v -30 a 4,4 0 0,1 4,-4 h 26 a 4,4 0 0,1 4, 4 v 30" class="frame" transform="scale(1.0)"/><path d="M 208 142 v -30 a 4,4 0 0,1 4,-4 h 26 a 4,4 0 0,1 4, 4 v 30" class="frame" transform="scale(1.0)"/><path d="M 258 142 v -30 a 4,4 0 0,1 4,-4 h 26 a 4,4 0 0,1 4, 4 v 30" class="frame" transform="scale(1.0)"/><path d="M 308 142 v -30 a 4,4 0 0,1 4,-4 h 26 a 4,4 0 0,1 4, 4 v 30" class="frame" transform="scale(1.0)"/><path d="M 358 142 v -30 a 4,4 0 0,1 4,-4 h 26 a 4,4 0 0,1 4, 4 v 30" class="frame" transform="scale(1.0)"/><path d="M 408 142 v -30 a 4,4 0 0,1 4,-4 h 26 a 4,4 0 0,1 4, 4 v 30" class="frame" transform="scale(1.0)"/><path d="M 458 142 v -30 a 4,4 0 0,1 4,-4 h 26 a 4,4 0 0,1 4, 4 v 30" class="frame" transform="scale(1.0)"/><path d="M 542 42 h -30 a 4,4 0 0,1 -4,-4 v -30" class="frame" transform="scale(1.0)"/><path d="M 542 58 h -30 a 4,4 0 0,0 -4, 4 v 26 a 4,4 0 0,0 4, 4 h 30" class="frame" transform="scale(1.0)"/><path d="M 542 108 h -30 a 4,4 0 0,0 -4, 4 v 30" class="frame" transform="scale(1.0)"/><path d="M 58 66 a 8,8 0 0,1 8,-8 h 18 a 8,8 0 0,1 8,8 v 18 a 8,8 0 0,1 -8,8 h -18 a 8,8 0 0,1 -8,-8 v -1 a 8,8 0 0,1 8,-8 h 26" class="a" transform="scale(1.0)"/><path d="M 142 58 h -26 a 8,8 0 0,0 -8,8 v 18 a 8,8 0 0,0 8,8 h 26" class="c" transform="scale(1.0)"/><path d="M 192 58 h -26 a 8,8 0 0,0 -8,8 v 18 a 8,8 0 0,0 8,8 h 26" class="c" transform="scale(1.0)"/><path d="M 208 58 v 26 a 8,8 0 0,0 8,8 h 18 a 8,8 0 0,0 8,-8 v -26" class="u" transform="scale(1.0)"/><path d="M 258 92 v -26 a 8,8 0 0,1 8,-8 h 26 a 8,8 0 0,1 8,8 v 26" class="m" transform="scale(1.0)"/><path d="M 300 92 v -26 a 8,8 0 0,1 8,-8 h 26 a 8,8 0 0,1 8,8 v 26" class="m" transform="scale(1.0)"/><path d="M 358 58 v 26 a 8,8 0 0,0 8,8 h 18 a 8,8 0 0,0 8,-8 v -26" class="u" transform="scale(1.0)"/><path d="M 408 58 v 26 a 8,8 0 0,0 8,8 h 26" class="l" transform="scale(1.0)"/><path d="M 458 66 a 8,8 0 0,1 8,-8 h 18 a 8,8 0 0,1 8,8 v 18 a 8,8 0 0,1 -8,8 h -18 a 8,8 0 0,1 -8,-8 Z" class="a" transform="scale(1.0)"/><text x="516" y="29" transform="scale(1.0)">TM</text></g></svg>