<svg xmlns="http://www.w3.org/2000/svg" xmlns:svg="http://www.w3.org/2000/svg" id="svg2940" width="550" height="150" version="1.1" viewBox="0 0 550 150"><metadata id="metadata3018"/><defs id="defs2942"><style id="style2944" type="text/css">path.frame{stroke:silver;stroke-width:2;stroke-linecap:round;fill:none}path.a,path.c,path.l,path.m,path.u{stroke:#000;stroke-width:6;stroke-linecap:round;fill:none}</style></defs><path style="fill:none;stroke:#999;stroke-width:2;stroke-linecap:round" id="path2948" d="m 8,42 h 30 a 4,4 0 0 0 4,-4 V 8" class="frame"/><path style="fill:none;stroke:#999;stroke-width:2;stroke-linecap:round" id="path2950" d="m 8,58 h 30 a 4,4 0 0 1 4,4 v 26 a 4,4 0 0 1 -4,4 H 8" class="frame"/><path style="fill:none;stroke:#999;stroke-width:2;stroke-linecap:round" id="path2952" d="m 8,108 h 30 a 4,4 0 0 1 4,4 v 30" class="frame"/><path style="fill:none;stroke:#999;stroke-width:2;stroke-linecap:round" id="path2954" d="m 58,8 v 30 a 4,4 0 0 0 4,4 h 26 a 4,4 0 0 0 4,-4 V 8" class="frame"/><path style="fill:none;stroke:#999;stroke-width:2;stroke-linecap:round" id="path2956" d="m 108,8 v 30 a 4,4 0 0 0 4,4 h 26 a 4,4 0 0 0 4,-4 V 8" class="frame"/><path style="fill:none;stroke:#999;stroke-width:2;stroke-linecap:round" id="path2958" d="m 158,8 v 30 a 4,4 0 0 0 4,4 h 26 a 4,4 0 0 0 4,-4 V 8" class="frame"/><path style="fill:none;stroke:#999;stroke-width:2;stroke-linecap:round" id="path2960" d="m 208,8 v 30 a 4,4 0 0 0 4,4 h 26 a 4,4 0 0 0 4,-4 V 8" class="frame"/><path style="fill:none;stroke:#999;stroke-width:2;stroke-linecap:round" id="path2962" d="m 258,8 v 30 a 4,4 0 0 0 4,4 h 26 a 4,4 0 0 0 4,-4 V 8" class="frame"/><path style="fill:none;stroke:#999;stroke-width:2;stroke-linecap:round" id="path2964" d="m 308,8 v 30 a 4,4 0 0 0 4,4 h 26 a 4,4 0 0 0 4,-4 V 8" class="frame"/><path style="fill:none;stroke:#999;stroke-width:2;stroke-linecap:round" id="path2966" d="m 358,8 v 30 a 4,4 0 0 0 4,4 h 26 a 4,4 0 0 0 4,-4 V 8" class="frame"/><path style="fill:none;stroke:#999;stroke-width:2;stroke-linecap:round" id="path2968" d="m 408,8 v 30 a 4,4 0 0 0 4,4 h 26 a 4,4 0 0 0 4,-4 V 8" class="frame"/><path style="fill:none;stroke:#999;stroke-width:2;stroke-linecap:round" id="path2970" d="m 458,8 v 30 a 4,4 0 0 0 4,4 h 26 a 4,4 0 0 0 4,-4 V 8" class="frame"/><path style="fill:none;stroke:#999;stroke-width:2;stroke-linecap:round" id="path2972" d="m 58,142 v -30 a 4,4 0 0 1 4,-4 h 26 a 4,4 0 0 1 4,4 v 30" class="frame"/><path style="fill:none;stroke:#999;stroke-width:2;stroke-linecap:round" id="path2974" d="m 108,142 v -30 a 4,4 0 0 1 4,-4 h 26 a 4,4 0 0 1 4,4 v 30" class="frame"/><path style="fill:none;stroke:#999;stroke-width:2;stroke-linecap:round" id="path2976" d="m 158,142 v -30 a 4,4 0 0 1 4,-4 h 26 a 4,4 0 0 1 4,4 v 30" class="frame"/><path style="fill:none;stroke:#999;stroke-width:2;stroke-linecap:round" id="path2978" d="m 208,142 v -30 a 4,4 0 0 1 4,-4 h 26 a 4,4 0 0 1 4,4 v 30" class="frame"/><path style="fill:none;stroke:#999;stroke-width:2;stroke-linecap:round" id="path2980" d="m 258,142 v -30 a 4,4 0 0 1 4,-4 h 26 a 4,4 0 0 1 4,4 v 30" class="frame"/><path style="fill:none;stroke:#999;stroke-width:2;stroke-linecap:round" id="path2982" d="m 308,142 v -30 a 4,4 0 0 1 4,-4 h 26 a 4,4 0 0 1 4,4 v 30" class="frame"/><path style="fill:none;stroke:#999;stroke-width:2;stroke-linecap:round" id="path2984" d="m 358,142 v -30 a 4,4 0 0 1 4,-4 h 26 a 4,4 0 0 1 4,4 v 30" class="frame"/><path style="fill:none;stroke:#999;stroke-width:2;stroke-linecap:round" id="path2986" d="m 408,142 v -30 a 4,4 0 0 1 4,-4 h 26 a 4,4 0 0 1 4,4 v 30" class="frame"/><path style="fill:none;stroke:#999;stroke-width:2;stroke-linecap:round" id="path2988" d="m 458,142 v -30 a 4,4 0 0 1 4,-4 h 26 a 4,4 0 0 1 4,4 v 30" class="frame"/><path style="fill:none;stroke:#999;stroke-width:2;stroke-linecap:round" id="path2990" d="m 542,42 h -30 a 4,4 0 0 1 -4,-4 V 8" class="frame"/><path style="fill:none;stroke:#999;stroke-width:2;stroke-linecap:round" id="path2992" d="m 542,58 h -30 a 4,4 0 0 0 -4,4 v 26 a 4,4 0 0 0 4,4 h 30" class="frame"/><path style="fill:none;stroke:#999;stroke-width:2;stroke-linecap:round" id="path2994" d="m 542,108 h -30 a 4,4 0 0 0 -4,4 v 30" class="frame"/><path style="fill:none;stroke:#f2f2f2;stroke-width:6;stroke-linecap:round;stroke-opacity:1" id="path2996" d="m 58,66 a 8,8 0 0 1 8,-8 h 18 a 8,8 0 0 1 8,8 v 18 a 8,8 0 0 1 -8,8 H 66 a 8,8 0 0 1 -8,-8 v -1 a 8,8 0 0 1 8,-8 h 26" class="a"/><path style="fill:none;stroke:#f2f2f2;stroke-width:6;stroke-linecap:round;stroke-opacity:1" id="path2998" d="m 142,58 h -26 a 8,8 0 0 0 -8,8 v 18 a 8,8 0 0 0 8,8 h 26" class="c"/><path style="fill:none;stroke:#f2f2f2;stroke-width:6;stroke-linecap:round;stroke-opacity:1" id="path3004" d="M 258,92 V 66 a 8,8 0 0 1 8,-8 h 26 a 8,8 0 0 1 8,8 v 26" class="m"/><path style="fill:none;stroke:#f2f2f2;stroke-width:6;stroke-linecap:round;stroke-opacity:1" id="path3006" d="m 300,92 0,-26 c 0,-4.18879 3.81121,-8 8,-8 l 26,0 c 4.18879,0 8,3.81121 8,8 L 342,88.671946 342,92" class="m"/><path style="fill:none;stroke:#f2f2f2;stroke-width:6;stroke-linecap:round;stroke-opacity:1" id="path3008" d="m 358,58 v 26 a 8,8 0 0 0 8,8 h 18 a 8,8 0 0 0 8,-8 V 58" class="u"/><path style="fill:none;stroke:#f2f2f2;stroke-width:6;stroke-linecap:round;stroke-opacity:1" id="path3010" d="m 408,58 v 26 a 8,8 0 0 0 8,8 h 26" class="l"/><path style="fill:none;stroke:#f2f2f2;stroke-width:6;stroke-linecap:round;stroke-opacity:1" id="path3012" d="m 458,66 a 8,8 0 0 1 8,-8 h 18 a 8,8 0 0 1 8,8 v 18 a 8,8 0 0 1 -8,8 h -18 a 8,8 0 0 1 -8,-8 z" class="a"/><path style="fill:none;stroke:#f2f2f2;stroke-width:6;stroke-linecap:round;stroke-opacity:1" id="path2998-8" d="m 191.84921,58.003648 h -26 a 8,8 0 0 0 -8,8 v 18 a 8,8 0 0 0 8,8 h 26" class="c"/><path style="fill:none;stroke:#f2f2f2;stroke-width:6;stroke-linecap:round;stroke-opacity:1" id="path3008-9" d="m 208.65998,58.001824 v 26 a 8,8 0 0 0 8,8 h 18 a 8,8 0 0 0 8,-8 v -26" class="u"/></svg>