<svg xmlns="http://www.w3.org/2000/svg" width="58" height="58" version="1.1" viewBox="0 0 58 58"><defs><style type="text/css">path.a,path.frame{stroke-linecap:round;fill:none}path.frame{stroke:silver;stroke-width:2}path.a{stroke:#000;stroke-width:6}text{font:4px sans-serif;stroke:#606060;fill:#606060}</style></defs><g><path d="M 0 4 a 4,4 0 0,0 4,-4" class="frame" transform="scale(1.0)"/><path d="M 0 12 a 4,4 0 0,1 4,4 v 26 a 4,4 0 0,1 -4,4" class="frame" transform="scale(1.0)"/><path d="M 0 54 a 4,4 0 0,1 4,4" class="frame" transform="scale(1.0)"/><path d="M 12 0 a 4,4 0 0,0 4,4 h 26 a 4,4 0 0,0 4,-4" class="frame" transform="scale(1.0)"/><path d="M 12 58 a 4,4 0 0,1 4,-4 h 26 a 4,4 0 0,1 4,4" class="frame" transform="scale(1.0)"/><path d="M 58 12 a 4,4 0 0,0 -4, 4 v 26 a 4,4 0 0,0 4, 4" class="frame" transform="scale(1.0)"/><path d="M 58 54 a 4,4 0 0,0 -4, 4" class="frame" transform="scale(1.0)"/><path d="M 12 20 a 8,8 0 0,1 8,-8 h 18 a 8,8 0 0,1 8,8 v 18 a 8,8 0 0,1 -8,8 h -18 a 8,8 0 0,1 -8,-8 v -1 a 8,8 0 0,1 8,-8 h 26" class="a" transform="scale(1.0)"/><text x="52" y="4" transform="scale(1.0)">TM</text></g></svg>